<?xml version="1.0" encoding="UTF-8"?>
<svg width="60px" height="61px" viewBox="0 0 60 61" version="1.1" xmlns="http://www.w3.org/2000/svg" xmlns:xlink="http://www.w3.org/1999/xlink">
    <g id="----┣--Typography" stroke="none" stroke-width="1" fill="none" fill-rule="evenodd">
        <g id="Type/Headings" transform="translate(-1469.000000, -144.000000)" fill="#FFFFFF" stroke="#000000" stroke-opacity="0.1" stroke-width="3">
            <g id="Containers">
                <path d="M2874.84504,1.50092198 C2882.97077,1.53226947 2886.01124,2.36298737 2889.06106,3.99404683 C2892.05505,5.59525025 2894.40475,7.94495118 2896.00595,10.9389413 C2897.66899,14.0485576 2898.5,17.1484604 2898.5,25.638852 L2898.5,25.638852 L2898.5,3167.36115 C2898.5,3175.85154 2897.66899,3178.95144 2896.00595,3182.06106 C2894.40475,3185.05505 2892.05505,3187.40475 2889.06106,3189.00595 C2885.95144,3190.66899 2882.85154,3191.5 2874.36115,3191.5 L2874.36115,3191.5 L1325.63885,3191.5 C1317.14846,3191.5 1314.04856,3190.66899 1310.93894,3189.00595 C1307.94495,3187.40475 1305.59525,3185.05505 1303.99405,3182.06106 C1302.36373,3179.01262 1301.53301,3175.97388 1301.50095,3167.85063 L1301.50095,3167.85063 L1301.50092,25.1549639 C1301.53227,17.0292298 1302.36299,13.9887573 1303.99405,10.9389413 C1305.59525,7.94495118 1307.94495,5.59525025 1310.93894,3.99404683 C1313.98738,2.36372503 1317.02612,1.53300569 1325.14937,1.50095428 L1325.14937,1.50095428 Z" id="Container"></path>
            </g>
        </g>
        <g id="Type-Labels" transform="translate(-69.000000, -24.000000)"></g>
        <g id="Elements/Logo" fill-rule="nonzero">
            <g id="Starbucks-Coffee-Company-1">
                <circle id="Oval" fill="#FFFFFF" cx="30" cy="30" r="30.002"></circle>
                <path d="M33.017,12.969 C32.754,12.922 31.486,12.709 30,12.709 C28.514,12.709 27.246,12.921 26.983,12.969 C26.832,12.996 26.774,12.848 26.889,12.762 C26.993,12.685 29.999,10.397 29.999,10.397 L33.108,12.762 C33.225,12.848 33.168,12.996 33.017,12.969 Z M27.823,27.825 C27.823,27.825 27.664,27.882 27.622,28.022 C28.252,28.506 28.686,29.607 30,29.607 C31.314,29.607 31.748,28.506 32.377,28.022 C32.336,27.881 32.177,27.825 32.177,27.825 C32.177,27.825 31.354,28.019 30,28.019 C28.646,28.019 27.823,27.825 27.823,27.825 Z M30,25.972 C29.635,25.972 29.555,25.834 29.306,25.835 C29.069,25.836 28.609,26.025 28.509,26.198 C28.516,26.286 28.548,26.365 28.612,26.435 C29.144,26.515 29.384,26.811 30.001,26.811 C30.618,26.811 30.857,26.515 31.39,26.435 C31.452,26.365 31.486,26.287 31.493,26.198 C31.394,26.025 30.933,25.837 30.695,25.835 C30.445,25.833 30.364,25.972 30,25.972 L30,25.972 Z M59.956,31.645 C59.918,32.362 59.854,33.073 59.766,33.776 C56.37,34.338 55.156,31.312 51.677,31.464 C51.885,32.202 52.054,32.954 52.184,33.722 C55.053,33.72 56.209,36.402 59.401,36.007 C59.233,36.827 59.031,37.636 58.798,38.433 C56.274,38.681 55.385,36.173 52.464,36.242 C52.488,36.658 52.501,37.078 52.501,37.502 L52.489,38.203 L58.161,40.367 C57.864,41.174 57.532,41.963 57.17,42.736 C55.465,42.642 54.877,40.455 52.283,40.629 C52.205,41.19 52.106,41.744 51.988,42.291 C54.241,42.133 54.726,44.207 56.34,44.375 C55.929,45.125 55.486,45.855 55.015,46.566 C54.059,46.054 53.23,44.509 51.417,44.414 C51.603,43.84 51.766,43.258 51.904,42.666 C50.296,42.666 48.457,42.039 46.915,40.635 C47.415,37.789 42.998,34.891 42.998,32.807 C42.998,30.543 44.143,29.29 44.143,26.238 C44.143,23.973 43.043,21.516 41.384,19.837 C41.063,19.511 40.734,19.247 40.356,19.01 C41.88,20.896 43.05,23.132 43.05,25.722 C43.05,28.596 41.713,30.113 41.713,32.766 C41.713,35.418 45.593,37.713 45.593,40.448 C45.593,41.524 45.249,42.575 44.115,44.639 C45.857,46.379 48.126,47.328 49.59,47.328 C50.065,47.328 50.32,47.183 50.49,46.81 C50.636,46.488 50.775,46.162 50.906,45.833 C52.483,45.894 53.205,47.327 54.078,47.899 C53.599,48.542 53.096,49.163 52.569,49.764 C51.984,49.116 51.198,48.026 50.047,47.723 C49.841,48.123 49.623,48.518 49.394,48.905 C50.385,49.175 51.063,50.175 51.588,50.833 C51.022,51.419 50.433,51.981 49.82,52.521 C49.437,51.925 48.841,51.169 48.173,50.761 C47.926,51.095 47.669,51.421 47.404,51.738 C47.972,52.123 48.473,52.816 48.8,53.381 C48.092,53.949 47.36,54.488 46.602,54.992 C46.228,51.945 42.069,49.857 43.19,46.322 C42.822,46.945 42.383,47.724 42.383,48.662 C42.383,51.221 45.109,53.252 45.326,55.795 C44.761,56.133 44.183,56.451 43.594,56.752 C43.496,53.957 40.61,50.898 40.61,48.604 C40.61,46.043 43.964,43.471 43.964,40.448 C43.964,37.423 40.094,35.329 40.094,32.673 C40.094,30.019 41.74,28.492 41.74,25.09 C41.74,22.598 40.556,20.076 38.727,18.465 C38.403,18.179 38.084,17.952 37.701,17.753 C39.426,19.822 40.426,21.699 40.426,24.547 C40.426,27.746 38.54,29.522 38.54,32.654 C38.54,35.787 42.338,37.529 42.338,40.449 C42.338,43.369 38.803,45.83 38.803,48.83 C38.803,51.559 41.919,54.283 41.965,57.521 C41.284,57.818 40.59,58.089 39.884,58.335 C40.28,55.064 36.773,51.69 36.773,49.021 C36.773,46.103 40.44,43.595 40.44,40.449 C40.44,37.301 36.712,35.838 36.712,32.607 C36.712,29.378 38.999,27.59 38.999,24.022 C38.999,21.241 37.626,18.74 35.62,17.19 L35.493,17.094 C35.304,16.954 35.148,17.123 35.282,17.289 C36.702,19.062 37.461,20.855 37.461,23.51 C37.461,26.774 34.834,29.426 34.834,32.588 C34.834,36.32 38.362,37.387 38.362,40.449 C38.362,43.51 34.579,45.959 34.579,49.209 C34.579,52.223 38.159,55.568 37.545,59.047 C36.827,59.233 36.099,59.395 35.36,59.527 C36.032,55.195 32.52,52.084 32.52,49.25 C32.52,46.182 36.438,43.447 36.438,40.449 C36.438,37.621 33.626,36.697 33.256,33.804 C33.205,33.409 32.888,33.116 32.451,33.189 C31.88,33.293 31.148,33.669 29.998,33.669 C28.848,33.669 28.116,33.292 27.544,33.189 C27.108,33.117 26.791,33.41 26.74,33.804 C26.371,36.697 23.557,37.62 23.557,40.449 C23.557,43.447 27.476,46.181 27.476,49.25 C27.476,52.084 23.964,55.195 24.635,59.527 C23.897,59.394 23.168,59.232 22.45,59.047 C21.836,55.568 25.417,52.223 25.417,49.209 C25.417,45.959 21.633,43.51 21.633,40.449 C21.633,37.387 25.162,36.32 25.162,32.588 C25.162,29.426 22.534,26.775 22.534,23.51 C22.534,20.856 23.293,19.063 24.714,17.289 C24.847,17.123 24.692,16.954 24.502,17.094 L24.376,17.19 C22.372,18.736 21,21.237 21,24.018 C21,27.586 23.287,29.374 23.287,32.603 C23.287,35.833 19.559,37.296 19.559,40.445 C19.559,43.591 23.226,46.099 23.226,49.017 C23.226,51.687 19.719,55.06 20.116,58.331 C19.409,58.085 18.715,57.813 18.034,57.517 C18.081,54.279 21.195,51.554 21.195,48.826 C21.195,45.826 17.662,43.365 17.662,40.445 C17.662,37.525 21.458,35.783 21.458,32.65 C21.458,29.518 19.573,27.742 19.573,24.543 C19.573,21.695 20.572,19.818 22.297,17.749 C21.913,17.948 21.595,18.175 21.272,18.461 C19.443,20.072 18.26,22.594 18.26,25.086 C18.26,28.488 19.906,30.015 19.906,32.669 C19.906,35.325 16.036,37.419 16.036,40.444 C16.036,43.467 19.39,46.04 19.39,48.6 C19.39,50.895 16.502,53.954 16.405,56.748 C15.816,56.447 15.238,56.129 14.673,55.791 C14.891,53.248 17.616,51.217 17.616,48.658 C17.616,47.72 17.178,46.941 16.809,46.318 C17.93,49.853 13.771,51.941 13.397,54.988 C12.639,54.484 11.906,53.945 11.199,53.377 C11.525,52.813 12.026,52.119 12.595,51.734 C12.329,51.418 12.073,51.091 11.826,50.757 C11.157,51.165 10.56,51.921 10.178,52.517 C9.567,51.978 8.977,51.415 8.411,50.829 C8.936,50.171 9.614,49.171 10.605,48.901 C10.376,48.514 10.158,48.12 9.952,47.719 C8.801,48.022 8.014,49.112 7.43,49.76 C6.903,49.158 6.399,48.537 5.921,47.895 C6.794,47.323 7.516,45.889 9.092,45.829 C9.224,46.157 9.363,46.483 9.509,46.806 C9.679,47.179 9.935,47.324 10.409,47.324 C11.873,47.324 14.141,46.375 15.884,44.635 C14.75,42.571 14.406,41.52 14.406,40.444 C14.406,37.71 18.286,35.415 18.286,32.762 C18.286,30.109 16.949,28.592 16.949,25.718 C16.949,23.128 18.119,20.892 19.643,19.006 C19.265,19.243 18.936,19.507 18.615,19.833 C16.956,21.513 15.856,23.969 15.856,26.234 C15.856,29.286 17.002,30.539 17.002,32.803 C17.002,34.887 12.584,37.785 13.084,40.631 C11.542,42.035 9.703,42.662 8.094,42.662 C8.234,43.254 8.397,43.836 8.581,44.41 C6.769,44.506 5.94,46.051 4.983,46.562 C4.511,45.851 4.069,45.121 3.658,44.371 C5.271,44.203 5.757,42.129 8.011,42.287 C7.893,41.74 7.793,41.185 7.715,40.625 C5.121,40.451 4.533,42.639 2.828,42.732 C2.466,41.959 2.134,41.17 1.837,40.363 L7.51,38.199 L7.498,37.498 C7.498,37.074 7.511,36.654 7.534,36.238 C4.613,36.17 3.724,38.677 1.2,38.429 C0.968,37.632 0.765,36.824 0.598,36.003 C3.788,36.398 4.945,33.716 7.815,33.718 C7.945,32.95 8.114,32.198 8.321,31.46 C4.842,31.309 3.628,34.335 0.233,33.772 C0.144,33.069 0.081,32.358 0.043,31.641 C3.99,32.082 5.47,28.837 9.064,29.234 C9.403,28.375 9.797,27.544 10.241,26.744 C5.735,25.952 4.205,29.72 0.011,29.141 C0.464,12.97 13.717,-0.002 30,-0.002 C46.283,-0.002 59.536,12.97 59.989,29.145 C55.794,29.724 54.264,25.957 49.759,26.748 C50.202,27.548 50.596,28.379 50.936,29.238 C54.528,28.84 56.008,32.086 59.956,31.645 Z M17.104,19.062 C14.895,18.159 12.221,18.367 9.937,19.834 C9.583,17.709 8.43,15.821 6.788,14.682 C6.561,14.525 6.325,14.674 6.346,14.937 C6.693,19.427 4.068,23.326 0.84,26.753 C4.167,27.753 6.999,23.469 11.314,24.964 C12.862,22.659 14.828,20.656 17.104,19.062 L17.104,19.062 Z M30,16.346 C27.215,16.346 24.882,17.921 24.271,19.956 C24.224,20.112 24.288,20.213 24.468,20.132 C24.969,19.907 25.539,19.799 26.158,19.799 C27.294,19.799 28.295,20.216 28.887,20.942 C29.149,21.806 29.171,23.057 28.875,23.771 C28.407,23.666 28.239,23.304 27.782,23.304 C27.325,23.304 26.971,23.625 26.196,23.625 C25.422,23.625 25.331,23.259 24.822,23.259 C24.223,23.259 24.113,23.876 24.113,24.572 C24.113,27.675 26.965,31.945 29.999,31.945 C33.032,31.945 35.884,27.675 35.884,24.572 C35.884,23.876 35.741,23.28 35.115,23.199 C34.803,23.424 34.516,23.625 33.802,23.625 C33.027,23.625 32.813,23.304 32.357,23.304 C31.806,23.304 31.861,24.466 31.207,24.531 C30.771,23.483 30.75,22.139 31.112,20.942 C31.705,20.216 32.705,19.799 33.841,19.799 C34.46,19.799 35.034,19.908 35.53,20.132 C35.711,20.213 35.774,20.111 35.727,19.956 C35.117,17.921 32.785,16.346 30,16.346 Z M34.434,20.798 C33.766,20.798 32.983,21.003 32.491,21.551 C32.44,21.7 32.44,21.922 32.512,22.07 C33.723,21.655 34.791,21.639 35.307,22.216 C35.582,21.966 35.67,21.741 35.67,21.48 C35.67,21.077 35.26,20.798 34.434,20.798 L34.434,20.798 Z M24.693,22.216 C25.277,21.631 26.508,21.656 27.787,22.128 C27.843,21.492 26.704,20.797 25.566,20.797 C24.739,20.797 24.33,21.076 24.33,21.48 C24.33,21.741 24.418,21.967 24.693,22.216 Z M43.887,11.712 C41.688,11.869 39.778,12.624 38.233,13.882 C38.889,12.022 39.722,10.395 40.778,8.818 C37.978,9.115 35.637,10.139 33.929,11.889 L32.592,8.384 L35.56,5.763 L31.586,5.482 L30,1.786 L28.413,5.482 L24.439,5.763 L27.407,8.384 L26.071,11.889 C24.362,10.139 22.021,9.115 19.223,8.818 C20.277,10.396 21.11,12.023 21.766,13.882 C20.222,12.623 18.312,11.868 16.113,11.712 C17.432,13.408 18.601,15.216 19.467,17.16 C19.565,17.379 19.775,17.451 20.002,17.338 C23.014,15.841 26.408,14.999 29.999,14.999 C33.59,14.999 36.983,15.842 39.997,17.338 C40.224,17.451 40.434,17.379 40.531,17.16 C41.398,15.216 42.567,13.408 43.887,11.712 Z M48.688,24.966 C53.001,23.471 55.834,27.754 59.161,26.755 C55.933,23.328 53.309,19.429 53.656,14.939 C53.677,14.676 53.44,14.526 53.214,14.684 C51.571,15.823 50.418,17.711 50.065,19.836 C47.78,18.369 45.107,18.16 42.898,19.064 C45.171,20.656 47.138,22.659 48.688,24.966 L48.688,24.966 Z" id="Shape" fill="#006341"></path>
                <g id="Group" transform="translate(49.000000, 55.000000)" fill="#006341">
                    <path d="M3.595,1.01 L2.069,1.01 L2.069,5.115 L1.522,5.115 L1.522,1.01 L0,1.01 L0,0.5 L3.595,0.5 L3.595,1.01 L3.595,1.01 Z M4.236,0.5 L5.047,0.5 L6.617,4.118 L6.628,4.118 L8.202,0.5 L9,0.5 L9,5.115 L8.449,5.115 L8.449,1.246 L8.437,1.246 L6.784,5.115 L6.451,5.115 L4.792,1.246 L4.781,1.246 L4.781,5.115 L4.236,5.115 L4.236,0.5 Z" id="Shape"></path>
                </g>
            </g>
        </g>
    </g>
</svg>